# xmcd
#
# Track frame offsets: 
#        150
#        19327
#        35892
#        46537
#        65732
#        81217
#        98728
#        114613
#        142168
#        158962
#        171604
#
# Disc length: 2624 seconds
#
# Revision: 0
# Processed by: cddbd v1.5.2PL0 Copyright (c) Steve Scherf et al.
# Submitted via: ExactAudioCopy v1.2
#
DISCID=9e0a3e0b
DTITLE=Bad Temper Joe - The Maddest of Them All [CD1]
DYEAR=2019
DGENRE=Blues
TTITLE0=Hell's Gonna Fly
TTITLE1=Bad Gasoline
TTITLE2=Talkin’ 21st Century Schizoid Blues
TTITLE3=My Favorite Things
TTITLE4=Heartache Shuffle #13 and #36
TTITLE5=Flyin'
TTITLE6=A Smoke, Burgers and Beer
TTITLE7=Supper in Mexico
TTITLE8=Postcards Ain't Enough
TTITLE9=Rules and Lies
TTITLE10=Highway Takes the Lonely
EXTD=
EXTT0=
EXTT1=
EXTT2=
EXTT3=
EXTT4=
EXTT5=
EXTT6=
EXTT7=
EXTT8=
EXTT9=
EXTT10=
PLAYORDER=
